PathFileType	4	(x/y/z)	S02_P20_T25
DataRate	CameraRate	NumFrames	NumMarkers	Units	OrigDataRate	OrigDataStartFrame	OrigNumFrames
240	240	9	51	mm	240	272	362
Frame#	Time	Sternum			R.Acromium			L.Acromium			Top.Head			R.ASIS			L.ASIS			R.PSIS			L.PSIS			R.Great.Tro			L.Great.Tro			R.Iliac.Crest			L.Iliac.Crest			V.Sacral			R.Thigh.Upper.Post			R.Thigh.Lower.Ant			R.Thigh.Lower.Post			R.Thigh.Upper.Ant			R.Knee.Lat			R.Knee.Med			R.Shank.Upper.Post			R.Shank.Lower.Ant			R.Shank.Lower.Post			R.Shank.Upper.Ant			R.Ankle.Lat			R.Ankle.Med			R.Heel.Upper			R.Heel.Med			R.Heel.Lat			R.Toe.Lat			R.Toe.Med			R.Toe.Tip			L.Thigh.Upper.Post			L.Thigh.Lower.Ant			L.Thigh.Lower.Post			L.Thigh.Upper.Ant			L.Knee.Lat			L.Knee.Med			L.Shank.Upper.Post			L.Shank.Lower.Ant			L.Shank.Lower.Post			L.Shank.Upper.Ant			L.Ankle.Lat			L.Ankle.Med			L.Heel.Upper			L.Heel.Med			L.Heel.Lat			L.Toe.Lat			L.Toe.Med			L.Toe.Tip			Cervical.Spine			Back			
		X1	Y1	Z1	X2	Y2	Z2	X3	Y3	Z3	X4	Y4	Z4	X5	Y5	Z5	X6	Y6	Z6	X7	Y7	Z7	X8	Y8	Z8	X9	Y9	Z9	X10	Y10	Z10	X11	Y11	Z11	X12	Y12	Z12	X13	Y13	Z13	X14	Y14	Z14	X15	Y15	Z15	X16	Y16	Z16	X17	Y17	Z17	X18	Y18	Z18	X19	Y19	Z19	X20	Y20	Z20	X21	Y21	Z21	X22	Y22	Z22	X23	Y23	Z23	X24	Y24	Z24	X25	Y25	Z25	X26	Y26	Z26	X27	Y27	Z27	X28	Y28	Z28	X29	Y29	Z29	X30	Y30	Z30	X31	Y31	Z31	X32	Y32	Z32	X33	Y33	Z33	X34	Y34	Z34	X35	Y35	Z35	X36	Y36	Z36	X37	Y37	Z37	X38	Y38	Z38	X39	Y39	Z39	X40	Y40	Z40	X41	Y41	Z41	X42	Y42	Z42	X43	Y43	Z43	X44	Y44	Z44	X45	Y45	Z45	X46	Y46	Z46	X47	Y47	Z47	X48	Y48	Z48	X49	Y49	Z49	X50	Y50	Z50	X51	Y51	Z51	

272	1.1292	182.51	1096.7	315.81	59.154	1334.9	446.74	73.731	1329.3	152.21	151.58	1611.5	290.21	130.59	914.79	421.53	160.29	917.19	212.02	-74.035	952.41	347.66	-73.956	963.08	274.46	50.217	793.26	504.18	45.82	833.5	112.51	26.283	958.74	470.2	41.022	968.65	135.51	-96.543	909.29	299.72	93.555	598.27	504.39	166.38	527.04	492	95.252	508.15	492.45	160.51	616.65	499.6	117.95	436.07	490.31	142.76	413.59	346.25	-71.114	365.99	452.7	-93.434	258.19	440.22	-126.5	317.98	440.22	-40.26	300.6	460.89	-190.12	246.42	425.46	-156.5	243.46	344.89	-215.14	294.77	364.52	-232.6	272.56	330.34	-250.32	280.18	392.5	-206.06	127.27	441.88	-173.38	99.041	339.98	-141.73	64.556	402.96	67.36	594.2	143.11	158.51	534.12	158	84.697	508.53	170.35	132.77	622.34	131.97	157.62	451.7	173.79	145.76	456.38	310.91	69.174	283.44	178.52	132.99	194.46	201.94	62.575	212.02	197.22	132.91	268.71	182.41	79.612	98.963	216.15	89.431	97.474	298.63	18.827	66.09	249.41	26.209	40.875	284.08	25.531	37.742	222.11	192.99	34.772	198.32	210.27	45.583	309.16	271.96	61.244	263.87	-7.7717	1393.3	295.38	-76.773	1138	306.58
273	1.1333	187.41	1097.6	315.84	64.002	1336	446.56	78.965	1330.1	152.01	156.95	1612.4	290	135.44	915.98	421.31	164.99	917.73	211.7	-69.115	953.64	347.28	-69.106	964.26	274.09	55.314	794.55	503.91	49.997	834.15	112.38	31.088	959.92	469.89	45.788	969.37	135.17	-91.8	910.54	299.4	101.88	600.09	504.56	175.6	529.75	492.19	104.69	510	492.67	168.69	619.29	499.8	128.38	438.26	490.44	153.11	416.17	346.19	-60.157	367.21	452.16	-81.763	259.26	439.78	-115.23	318.85	439.64	-28.916	302.03	460.51	-178.28	247.11	424.73	-144.67	244.13	344.21	-203.8	294.88	363.55	-221.03	272.32	329.49	-238.82	280.07	391.6	-193	127.95	441.69	-160.11	99.548	339.92	-128.07	65.722	403.08	69.836	594.93	142.98	160.48	534.11	158.01	86.438	509.11	170.17	135.5	622.55	131.99	158.69	451.65	173.74	146.69	456.33	310.92	69.55	283.61	178.6	133.2	194.46	201.85	62.805	212.24	197.26	133.27	268.72	182.35	79.686	99.072	216.18	89.51	97.585	298.63	18.846	66.193	249.44	26.235	40.971	284.09	25.556	37.858	222.13	193	34.774	198.32	210.3	45.572	309.17	272	61.197	263.86	-2.6344	1394.3	295.03	-71.786	1139	305.94
274	1.1375	192.29	1098.5	315.86	68.865	1337.1	446.39	84.191	1330.9	151.83	162.31	1613.3	289.82	140.31	917.2	421.06	169.7	918.25	211.38	-64.173	954.91	346.91	-64.238	965.46	273.73	60.439	795.88	503.66	54.177	834.79	112.26	35.945	961.15	469.58	50.57	970.07	134.82	-87.057	911.83	299.11	110.18	601.96	504.71	184.77	532.51	492.29	114.09	511.91	492.84	176.85	621.98	499.94	138.75	440.49	490.48	163.4	418.84	346.07	-49.234	368.28	451.62	-70.011	260.18	439.32	-103.94	319.51	439.06	-17.536	303.34	460.09	-166.37	247.52	424.03	-132.78	244.59	343.54	-192.45	294.69	362.65	-209.45	271.77	328.69	-227.28	279.6	390.77	-179.71	128.34	441.49	-146.61	99.852	339.84	-114.1	66.728	403.13	72.29	595.67	142.89	162.41	534.09	158.05	88.155	509.69	170.02	138.2	622.76	132.03	159.71	451.61	173.71	147.67	456.3	310.96	69.918	283.78	178.69	133.4	194.47	201.77	63.032	212.46	197.31	133.61	268.75	182.3	79.766	99.18	216.21	89.588	97.697	298.62	18.868	66.305	249.47	26.259	41.075	284.09	25.581	37.982	222.15	193.01	34.774	198.33	210.34	45.559	309.17	272.04	61.147	263.86	2.5011	1395.3	294.69	-66.808	1140.1	305.3
275	1.1417	197.17	1099.4	315.87	73.744	1338.2	446.22	89.412	1331.8	151.66	167.66	1614.2	289.66	145.18	918.43	420.78	174.41	918.74	211.04	-59.211	956.21	346.56	-59.354	966.68	273.38	65.597	797.22	503.42	58.359	835.41	112.14	40.856	962.44	469.27	55.366	970.75	134.48	-82.313	913.15	298.85	118.45	603.87	504.83	193.89	535.33	492.31	123.45	513.87	492.97	184.97	624.7	500.03	149.04	442.76	490.45	173.63	421.57	345.89	-38.348	369.2	451.07	-58.182	260.92	438.85	-92.636	319.97	438.49	-6.1231	304.53	459.64	-154.39	247.65	423.36	-120.85	244.84	342.88	-181.11	294.21	361.81	-197.84	270.93	327.95	-215.7	278.79	390	-166.19	128.44	441.28	-132.9	99.958	339.72	-99.857	67.569	403.12	74.722	596.4	142.84	164.32	534.07	158.11	89.847	510.28	169.91	140.88	622.97	132.08	160.7	451.59	173.68	148.7	456.29	311.02	70.28	283.97	178.78	133.6	194.51	201.7	63.257	212.68	197.36	133.95	268.79	182.26	79.853	99.288	216.25	89.667	97.81	298.6	18.892	66.424	249.5	26.28	41.186	284.1	25.608	38.114	222.17	193.03	34.774	198.33	210.38	45.545	309.17	272.08	61.094	263.86	7.6354	1396.4	294.38	-61.839	1141.2	304.66
276	1.1458	202.03	1100.2	315.88	78.638	1339.2	446.05	94.631	1332.6	151.51	172.99	1615.1	289.52	150.07	919.67	420.47	179.12	919.22	210.7	-54.231	957.54	346.22	-54.455	967.9	273.05	70.793	798.58	503.19	62.544	836.01	112.03	45.822	963.77	468.95	60.168	971.4	134.15	-77.565	914.5	298.62	126.69	605.81	504.92	202.95	538.19	492.24	132.76	515.88	493.05	193.05	627.45	500.07	159.26	445.06	490.34	183.79	424.37	345.66	-27.5	369.96	450.54	-46.284	261.5	438.37	-81.314	320.22	437.94	5.3171	305.6	459.18	-142.33	247.5	422.73	-108.87	244.87	342.25	-169.75	293.44	361.03	-186.21	269.8	327.27	-204.09	277.64	389.31	-152.47	128.27	441.05	-118.98	99.872	339.57	-85.359	68.244	403.05	77.132	597.14	142.81	166.2	534.04	158.18	91.516	510.88	169.84	143.52	623.16	132.16	161.66	451.57	173.66	149.76	456.3	311.08	70.638	284.16	178.87	133.8	194.55	201.65	63.481	212.92	197.41	134.28	268.85	182.24	79.947	99.396	216.3	89.746	97.924	298.59	18.919	66.55	249.53	26.299	41.304	284.11	25.637	38.252	222.19	193.04	34.774	198.34	210.42	45.531	309.16	272.13	61.038	263.86	12.769	1397.4	294.08	-56.878	1142.3	304.03
277	1.15	206.87	1101.1	315.87	83.547	1340.2	445.88	99.848	1333.5	151.37	178.31	1616	289.41	154.97	920.91	420.12	183.83	919.69	210.34	-49.235	958.89	345.92	-49.544	969.13	272.74	76.029	799.96	502.98	66.729	836.6	111.93	50.844	965.14	468.63	64.971	972.04	133.82	-72.813	915.86	298.43	134.89	607.77	504.99	211.96	541.08	492.11	142.01	517.92	493.1	201.09	630.21	500.05	169.4	447.38	490.16	193.89	427.22	345.38	-16.69	370.56	450.02	-34.321	261.91	437.89	-69.977	320.27	437.41	16.78	306.54	458.69	-130.21	247.08	422.15	-96.849	244.7	341.64	-158.38	292.38	360.32	-174.54	268.39	326.66	-192.43	276.16	388.69	-138.55	127.83	440.82	-104.86	99.599	339.39	-70.621	68.756	402.93	79.52	597.87	142.83	168.05	534.02	158.27	93.162	511.49	169.8	146.15	623.35	132.25	162.6	451.57	173.66	150.85	456.31	311.16	70.995	284.37	178.96	134	194.62	201.6	63.707	213.16	197.46	134.61	268.92	182.22	80.047	99.502	216.37	89.826	98.039	298.57	18.949	66.683	249.56	26.315	41.43	284.12	25.667	38.396	222.21	193.05	34.772	198.35	210.46	45.517	309.16	272.17	60.979	263.86	17.902	1398.4	293.79	-51.922	1143.4	303.41
278	1.1542	211.71	1101.9	315.86	88.47	1341.2	445.71	105.07	1334.3	151.25	183.61	1616.9	289.32	159.88	922.16	419.73	188.55	920.16	209.98	-44.225	960.25	345.64	-44.621	970.34	272.45	81.306	801.34	502.77	70.913	837.18	111.84	55.92	966.55	468.3	69.77	972.65	133.49	-68.055	917.22	298.27	143.05	609.76	505.02	220.89	543.98	491.89	151.21	520	493.09	209.05	632.98	499.97	179.46	449.71	489.92	203.93	430.12	345.05	-5.9199	371	449.51	-22.297	262.16	437.41	-58.625	320.11	436.89	28.263	307.36	458.19	-118.02	246.39	421.6	-84.782	244.31	341.06	-147.01	291.04	359.68	-162.85	266.69	326.1	-180.73	274.36	388.14	-124.43	127.14	440.59	-90.551	99.148	339.2	-55.657	69.111	402.77	81.888	598.61	142.87	169.88	533.99	158.36	94.787	512.1	169.8	148.74	623.52	132.35	163.53	451.58	173.66	151.97	456.34	311.23	71.352	284.59	179.05	134.2	194.69	201.56	63.936	213.4	197.53	134.94	269.01	182.22	80.156	99.606	216.44	89.907	98.156	298.54	18.981	66.823	249.58	26.329	41.564	284.13	25.698	38.547	222.23	193.06	34.771	198.36	210.5	45.504	309.15	272.22	60.917	263.86	23.034	1399.5	293.52	-46.972	1144.5	302.79
279	1.1583	216.54	1102.7	315.83	93.405	1342.2	445.54	110.29	1335.2	151.13	188.9	1617.8	289.25	164.8	923.41	419.31	193.25	920.61	209.61	-39.205	961.62	345.38	-39.689	971.55	272.19	86.626	802.73	502.58	75.097	837.75	111.76	61.048	967.98	467.97	74.562	973.24	133.18	-63.29	918.59	298.15	151.16	611.75	505.03	229.76	546.91	491.61	160.33	522.09	493.05	216.95	635.74	499.83	189.42	452.06	489.6	213.9	433.05	344.67	4.81	371.28	449.02	-10.216	262.25	436.93	-47.259	319.75	436.4	39.761	308.07	457.68	-105.77	245.45	421.1	-72.669	243.73	340.51	-135.61	289.43	359.1	-151.11	264.73	325.61	-168.98	272.24	387.66	-110.13	126.2	440.36	-76.051	98.527	338.99	-40.479	69.315	402.56	84.237	599.34	142.95	171.68	533.95	158.47	96.392	512.71	169.83	151.31	623.69	132.46	164.45	451.6	173.68	153.09	456.37	311.31	71.709	284.83	179.15	134.39	194.78	201.52	64.169	213.64	197.6	135.27	269.11	182.22	80.273	99.71	216.52	89.989	98.274	298.52	19.018	66.969	249.61	26.342	41.704	284.14	25.731	38.703	222.25	193.08	34.769	198.36	210.55	45.492	309.14	272.27	60.853	263.86	28.167	1400.5	293.26	-42.027	1145.5	302.18
280	1.1625	221.35	1103.5	315.8	98.35	1343.2	445.37	115.51	1336.1	151.03	194.18	1618.6	289.2	169.74	924.65	418.86	197.96	921.07	209.23	-34.177	962.98	345.16	-34.749	972.73	271.95	91.989	804.12	502.4	79.279	838.3	111.69	66.224	969.43	467.63	79.342	973.82	132.88	-58.517	919.94	298.07	159.21	613.74	505.02	238.53	549.83	491.26	169.38	524.2	492.95	224.77	638.5	499.62	199.29	454.41	489.23	223.78	436.01	344.24	15.5	371.41	448.55	1.9186	262.2	436.45	-35.877	319.2	435.93	51.272	308.65	457.16	-93.442	244.25	420.65	-60.509	242.94	339.99	-124.19	287.54	358.59	-139.34	262.49	325.18	-157.18	269.81	387.26	-95.629	125.04	440.14	-61.363	97.746	338.76	-25.097	69.379	402.31	86.566	600.06	143.05	173.45	533.91	158.58	97.978	513.33	169.89	153.85	623.84	132.58	165.37	451.62	173.7	154.21	456.41	311.39	72.068	285.07	179.24	134.58	194.89	201.49	64.407	213.88	197.68	135.6	269.22	182.22	80.397	99.811	216.61	90.074	98.395	298.49	19.058	67.121	249.63	26.352	41.852	284.15	25.765	38.863	222.27	193.09	34.767	198.37	210.59	45.481	309.13	272.32	60.787	263.85	33.299	1401.4	293	-37.084	1146.6	301.57
